<svg width="21" height="24" viewBox="0 0 21 24" fill="none" xmlns="http://www.w3.org/2000/svg">
<path d="M7.7 17.2L9.33333 15.5083L6.825 13L9.33333 10.4917L7.7 8.8L3.5 13L7.7 17.2ZM13.3 17.2L17.5 13L13.3 8.8L11.6667 10.4917L14.175 13L11.6667 15.5083L13.3 17.2ZM2.33333 23.5C1.69167 23.5 1.14236 23.2715 0.685417 22.8146C0.228472 22.3576 0 21.8083 0 21.1667V4.83333C0 4.19167 0.228472 3.64236 0.685417 3.18542C1.14236 2.72847 1.69167 2.5 2.33333 2.5H7.23333C7.48611 1.8 7.90903 1.23611 8.50208 0.808335C9.09514 0.380557 9.76111 0.166668 10.5 0.166668C11.2389 0.166668 11.9049 0.380557 12.4979 0.808335C13.091 1.23611 13.5139 1.8 13.7667 2.5H18.6667C19.3083 2.5 19.8576 2.72847 20.3146 3.18542C20.7715 3.64236 21 4.19167 21 4.83333V21.1667C21 21.8083 20.7715 22.3576 20.3146 22.8146C19.8576 23.2715 19.3083 23.5 18.6667 23.5H2.33333ZM2.33333 21.1667H18.6667V4.83333H2.33333V21.1667ZM10.5 3.95833C10.7528 3.95833 10.9618 3.8757 11.1271 3.71042C11.2924 3.54514 11.375 3.33611 11.375 3.08333C11.375 2.83056 11.2924 2.62153 11.1271 2.45625C10.9618 2.29097 10.7528 2.20833 10.5 2.20833C10.2472 2.20833 10.0382 2.29097 9.87292 2.45625C9.70764 2.62153 9.625 2.83056 9.625 3.08333C9.625 3.33611 9.70764 3.54514 9.87292 3.71042C10.0382 3.8757 10.2472 3.95833 10.5 3.95833Z" fill="#FC6326"/>
</svg>
