<svg width="40" height="38" viewBox="0 0 40 38" fill="none" xmlns="http://www.w3.org/2000/svg">
<path d="M33.44 24.52C34.14 22.82 34.52 21 34.52 19C34.52 17.56 34.3 16.18 33.92 14.9C32.62 15.2 31.26 15.36 29.84 15.36C26.9319 15.3631 24.0658 14.667 21.4831 13.3304C18.9004 11.9938 16.6769 10.0559 15 7.68C13.2079 12.0215 9.82343 15.5133 5.54 17.44C5.46 17.94 5.46 18.48 5.46 19C5.46 20.9094 5.83609 22.8001 6.56679 24.5642C7.29749 26.3283 8.3685 27.9312 9.71867 29.2813C12.4454 32.0081 16.1438 33.54 20 33.54C22.1 33.54 24.12 33.08 25.94 32.26C27.08 34.44 27.6 35.52 27.56 35.52C24.28 36.62 21.74 37.16 20 37.16C15.16 37.16 10.54 35.26 7.14 31.84C5.0701 29.7799 3.53254 27.247 2.66 24.46H0V15.36H2.18C2.84048 12.145 4.35899 9.16882 6.57438 6.74718C8.78977 4.32555 11.6194 2.54881 14.7631 1.60552C17.9067 0.662219 21.2471 0.587544 24.4297 1.38941C27.6124 2.19128 30.5186 3.83979 32.84 6.16C35.3596 8.67116 37.0786 11.8726 37.78 15.36H40V24.46H39.88L32.76 31L22.16 29.8V26.46H31.82L33.44 24.52ZM14.54 18.54C15.14 18.54 15.72 18.78 16.14 19.22C16.5621 19.6455 16.7989 20.2206 16.7989 20.82C16.7989 21.4194 16.5621 21.9945 16.14 22.42C15.72 22.84 15.14 23.08 14.54 23.08C13.28 23.08 12.26 22.08 12.26 20.82C12.26 19.56 13.28 18.54 14.54 18.54ZM25.44 18.54C26.7 18.54 27.7 19.56 27.7 20.82C27.7 22.08 26.7 23.08 25.44 23.08C24.18 23.08 23.16 22.08 23.16 20.82C23.16 20.2153 23.4002 19.6354 23.8278 19.2078C24.2554 18.7802 24.8353 18.54 25.44 18.54Z" fill="#FC6326"/>
</svg>
