<svg width="28" height="28" viewBox="0 0 28 28" fill="none" xmlns="http://www.w3.org/2000/svg">
<g clip-path="url(#clip0_70_1997)">
<path d="M7.00004 16.625H16.3334V14.2917H7.00004V16.625ZM7.00004 13.125H21V10.7917H7.00004V13.125ZM7.00004 9.625H21V7.29167H7.00004V9.625ZM2.33337 25.9583V4.95833C2.33337 4.31667 2.56185 3.76736 3.01879 3.31042C3.47574 2.85347 4.02504 2.625 4.66671 2.625H23.3334C23.975 2.625 24.5243 2.85347 24.9813 3.31042C25.4382 3.76736 25.6667 4.31667 25.6667 4.95833V18.9583C25.6667 19.6 25.4382 20.1493 24.9813 20.6063C24.5243 21.0632 23.975 21.2917 23.3334 21.2917H7.00004L2.33337 25.9583ZM6.00837 18.9583H23.3334V4.95833H4.66671V20.2708L6.00837 18.9583Z" fill="#FC6326"/>
</g>
<defs>
<clipPath id="clip0_70_1997">
<rect width="28" height="28" rx="4.66667" fill="white"/>
</clipPath>
</defs>
</svg>
