<svg width="45" height="40" viewBox="0 0 45 40" fill="none" xmlns="http://www.w3.org/2000/svg">
<path d="M22.75 36C22.8833 36 23.0166 35.9667 23.15 35.9C23.2833 35.8333 23.3833 35.7667 23.45 35.7L39.85 19.3C40.25 18.9 40.5416 18.45 40.725 17.95C40.9083 17.45 41 16.95 41 16.45C41 15.9167 40.9083 15.4083 40.725 14.925C40.5416 14.4417 40.25 14.0167 39.85 13.65L31.35 5.15C30.9833 4.75 30.5583 4.45833 30.075 4.275C29.5916 4.09167 29.0833 4 28.55 4C28.05 4 27.55 4.09167 27.05 4.275C26.55 4.45833 26.1 4.75 25.7 5.15L25.15 5.7L28.85 9.45C29.35 9.91667 29.7166 10.45 29.95 11.05C30.1833 11.65 30.3 12.2833 30.3 12.95C30.3 14.35 29.825 15.525 28.875 16.475C27.925 17.425 26.75 17.9 25.35 17.9C24.6833 17.9 24.0416 17.7833 23.425 17.55C22.8083 17.3167 22.2666 16.9667 21.8 16.5L18.05 12.8L9.29998 21.55C9.19998 21.65 9.12498 21.7583 9.07498 21.875C9.02498 21.9917 8.99998 22.1167 8.99998 22.25C8.99998 22.5167 9.09998 22.7583 9.29998 22.975C9.49998 23.1917 9.73331 23.3 9.99998 23.3C10.1333 23.3 10.2666 23.2667 10.4 23.2C10.5333 23.1333 10.6333 23.0667 10.7 23L17.5 16.2L20.3 19L13.55 25.8C13.45 25.9 13.375 26.0083 13.325 26.125C13.275 26.2417 13.25 26.3667 13.25 26.5C13.25 26.7667 13.35 27 13.55 27.2C13.75 27.4 13.9833 27.5 14.25 27.5C14.3833 27.5 14.5166 27.4667 14.65 27.4C14.7833 27.3333 14.8833 27.2667 14.95 27.2L21.75 20.45L24.55 23.25L17.8 30.05C17.7 30.1167 17.625 30.2167 17.575 30.35C17.525 30.4833 17.5 30.6167 17.5 30.75C17.5 31.0167 17.6 31.25 17.8 31.45C18 31.65 18.2333 31.75 18.5 31.75C18.6333 31.75 18.7583 31.725 18.875 31.675C18.9916 31.625 19.1 31.55 19.2 31.45L26 24.7L28.8 27.5L22 34.3C21.9 34.4 21.825 34.5083 21.775 34.625C21.725 34.7417 21.7 34.8667 21.7 35C21.7 35.2667 21.8083 35.5 22.025 35.7C22.2416 35.9 22.4833 36 22.75 36ZM22.7 40C21.4666 40 20.375 39.5917 19.425 38.775C18.475 37.9583 17.9166 36.9333 17.75 35.7C16.6166 35.5333 15.6666 35.0667 14.9 34.3C14.1333 33.5333 13.6666 32.5833 13.5 31.45C12.3666 31.2833 11.425 30.8083 10.675 30.025C9.92498 29.2417 9.46665 28.3 9.29998 27.2C8.03331 27.0333 6.99998 26.4833 6.19998 25.55C5.39998 24.6167 4.99998 23.5167 4.99998 22.25C4.99998 21.5833 5.12498 20.9417 5.37498 20.325C5.62498 19.7083 5.98331 19.1667 6.44998 18.7L18.05 7.15L24.6 13.7C24.6666 13.8 24.7666 13.875 24.9 13.925C25.0333 13.975 25.1666 14 25.3 14C25.6 14 25.85 13.9083 26.05 13.725C26.25 13.5417 26.35 13.3 26.35 13C26.35 12.8667 26.325 12.7333 26.275 12.6C26.225 12.4667 26.15 12.3667 26.05 12.3L18.9 5.15C18.5333 4.75 18.1083 4.45833 17.625 4.275C17.1416 4.09167 16.6333 4 16.1 4C15.6 4 15.1 4.09167 14.6 4.275C14.1 4.45833 13.65 4.75 13.25 5.15L6.19998 12.25C5.89998 12.55 5.64998 12.9 5.44998 13.3C5.24998 13.7 5.11665 14.1 5.04998 14.5C4.98331 14.9 4.98331 15.3083 5.04998 15.725C5.11665 16.1417 5.24998 16.5333 5.44998 16.9L2.54998 19.8C1.98331 19.0333 1.56665 18.1917 1.29998 17.275C1.03331 16.3583 0.933314 15.4333 0.99998 14.5C1.06665 13.5667 1.29998 12.6583 1.69998 11.775C2.09998 10.8917 2.64998 10.1 3.34998 9.4L10.4 2.35C11.2 1.58333 12.0916 1 13.075 0.6C14.0583 0.2 15.0666 0 16.1 0C17.1333 0 18.1416 0.2 19.125 0.6C20.1083 1 20.9833 1.58333 21.75 2.35L22.3 2.9L22.85 2.35C23.65 1.58333 24.5416 1 25.525 0.6C26.5083 0.2 27.5166 0 28.55 0C29.5833 0 30.5916 0.2 31.575 0.6C32.5583 1 33.4333 1.58333 34.2 2.35L42.65 10.8C43.4166 11.5667 44 12.45 44.4 13.45C44.8 14.45 45 15.4667 45 16.5C45 17.5333 44.8 18.5417 44.4 19.525C44 20.5083 43.4166 21.3833 42.65 22.15L26.25 38.5C25.7833 38.9667 25.2416 39.3333 24.625 39.6C24.0083 39.8667 23.3666 40 22.7 40Z" fill="#E30562"/>
</svg>
