<svg width="28" height="28" viewBox="0 0 28 28" fill="none" xmlns="http://www.w3.org/2000/svg">
<path d="M19.8333 25.9584C18.2194 25.9584 16.8438 25.3896 15.7063 24.2521C14.5688 23.1146 14 21.7389 14 20.125C14 18.5112 14.5688 17.1355 15.7063 15.998C16.8438 14.8605 18.2194 14.2917 19.8333 14.2917C21.4472 14.2917 22.8229 14.8605 23.9604 15.998C25.0979 17.1355 25.6667 18.5112 25.6667 20.125C25.6667 21.7389 25.0979 23.1146 23.9604 24.2521C22.8229 25.3896 21.4472 25.9584 19.8333 25.9584ZM21.7875 22.8959L22.6042 22.0792L20.4167 19.8917V16.625H19.25V20.3584L21.7875 22.8959ZM5.83333 24.7917C5.19167 24.7917 4.64236 24.5632 4.18542 24.1063C3.72847 23.6493 3.5 23.1 3.5 22.4584V6.12504C3.5 5.48337 3.72847 4.93407 4.18542 4.47712C4.64236 4.02018 5.19167 3.79171 5.83333 3.79171H10.7042C10.9181 3.11115 11.3361 2.55212 11.9583 2.11462C12.5806 1.67712 13.2611 1.45837 14 1.45837C14.7778 1.45837 15.4729 1.67712 16.0854 2.11462C16.6979 2.55212 17.1111 3.11115 17.325 3.79171H22.1667C22.8083 3.79171 23.3576 4.02018 23.8146 4.47712C24.2715 4.93407 24.5 5.48337 24.5 6.12504V13.4167C24.15 13.1639 23.7806 12.95 23.3917 12.775C23.0028 12.6 22.5944 12.4445 22.1667 12.3084V6.12504H19.8333V9.62504H8.16667V6.12504H5.83333V22.4584H12.0167C12.1528 22.8862 12.3083 23.2945 12.4833 23.6834C12.6583 24.0723 12.8722 24.4417 13.125 24.7917H5.83333ZM14 6.12504C14.3306 6.12504 14.6076 6.01324 14.8313 5.78962C15.0549 5.56601 15.1667 5.28893 15.1667 4.95837C15.1667 4.62782 15.0549 4.35074 14.8313 4.12712C14.6076 3.90351 14.3306 3.79171 14 3.79171C13.6694 3.79171 13.3924 3.90351 13.1688 4.12712C12.9451 4.35074 12.8333 4.62782 12.8333 4.95837C12.8333 5.28893 12.9451 5.56601 13.1688 5.78962C13.3924 6.01324 13.6694 6.12504 14 6.12504Z" fill="#FC6326"/>
</svg>
