<svg width="28" height="24" viewBox="0 0 28 24" fill="none" xmlns="http://www.w3.org/2000/svg">
<path d="M26.0339 10.7333V21.3333C26.0339 22.0667 25.7727 22.6944 25.2505 23.2167C24.7283 23.7389 24.1005 24 23.3672 24H4.70052C3.96719 24 3.33941 23.7389 2.81719 23.2167C2.29497 22.6944 2.03386 22.0667 2.03386 21.3333V10.7333C1.52275 10.2667 1.1283 9.66667 0.850524 8.93333C0.572747 8.2 0.567191 7.4 0.833858 6.53333L2.23386 2C2.41164 1.42222 2.7283 0.944444 3.18386 0.566667C3.63941 0.188889 4.16719 0 4.76719 0H23.3005C23.9005 0 24.4227 0.183333 24.8672 0.55C25.3116 0.916667 25.6339 1.4 25.8339 2L27.2339 6.53333C27.5005 7.4 27.495 8.18889 27.2172 8.9C26.9394 9.61111 26.545 10.2222 26.0339 10.7333ZM16.9672 9.33333C17.5672 9.33333 18.0227 9.12778 18.3339 8.71667C18.645 8.30556 18.7672 7.84444 18.7005 7.33333L17.9672 2.66667H15.3672V7.6C15.3672 8.06667 15.5227 8.47222 15.8339 8.81667C16.145 9.16111 16.5227 9.33333 16.9672 9.33333ZM10.9672 9.33333C11.4783 9.33333 11.895 9.16111 12.2172 8.81667C12.5394 8.47222 12.7005 8.06667 12.7005 7.6V2.66667H10.1005L9.36719 7.33333C9.2783 7.86667 9.39497 8.33333 9.71719 8.73333C10.0394 9.13333 10.4561 9.33333 10.9672 9.33333ZM5.03386 9.33333C5.43386 9.33333 5.78386 9.18889 6.08386 8.9C6.38386 8.61111 6.56719 8.24444 6.63386 7.8L7.36719 2.66667H4.76719L3.43386 7.13333C3.30052 7.57778 3.37275 8.05556 3.65052 8.56667C3.9283 9.07778 4.38941 9.33333 5.03386 9.33333ZM23.0339 9.33333C23.6783 9.33333 24.145 9.07778 24.4339 8.56667C24.7227 8.05556 24.7894 7.57778 24.6339 7.13333L23.2339 2.66667H20.7005L21.4339 7.8C21.5005 8.24444 21.6839 8.61111 21.9839 8.9C22.2839 9.18889 22.6339 9.33333 23.0339 9.33333ZM4.70052 21.3333H23.3672V11.9333C23.2561 11.9778 23.1839 12 23.1505 12H23.0339C22.4339 12 21.9061 11.9 21.4505 11.7C20.995 11.5 20.545 11.1778 20.1005 10.7333C19.7005 11.1333 19.245 11.4444 18.7339 11.6667C18.2227 11.8889 17.6783 12 17.1005 12C16.5005 12 15.9394 11.8889 15.4172 11.6667C14.895 11.4444 14.4339 11.1333 14.0339 10.7333C13.6561 11.1333 13.2172 11.4444 12.7172 11.6667C12.2172 11.8889 11.6783 12 11.1005 12C10.4561 12 9.87275 11.8889 9.35052 11.6667C8.8283 11.4444 8.36719 11.1333 7.96719 10.7333C7.50052 11.2 7.03941 11.5278 6.58386 11.7167C6.1283 11.9056 5.61164 12 5.03386 12H4.88386C4.8283 12 4.76719 11.9778 4.70052 11.9333V21.3333Z" fill="#FC6326"/>
</svg>
