<svg width="28" height="28" viewBox="0 0 28 28" fill="none" xmlns="http://www.w3.org/2000/svg">
<path d="M16.3333 15.1667C15.3611 15.1667 14.5347 14.8264 13.8541 14.1459C13.1736 13.4653 12.8333 12.6389 12.8333 11.6667C12.8333 10.6945 13.1736 9.86808 13.8541 9.18752C14.5347 8.50696 15.3611 8.16669 16.3333 8.16669C17.3055 8.16669 18.1319 8.50696 18.8125 9.18752C19.493 9.86808 19.8333 10.6945 19.8333 11.6667C19.8333 12.6389 19.493 13.4653 18.8125 14.1459C18.1319 14.8264 17.3055 15.1667 16.3333 15.1667ZM8.16663 18.6667C7.52496 18.6667 6.97565 18.4382 6.51871 17.9813C6.06177 17.5243 5.83329 16.975 5.83329 16.3334V7.00002C5.83329 6.35835 6.06177 5.80905 6.51871 5.3521C6.97565 4.89516 7.52496 4.66669 8.16663 4.66669H24.5C25.1416 4.66669 25.6909 4.89516 26.1479 5.3521C26.6048 5.80905 26.8333 6.35835 26.8333 7.00002V16.3334C26.8333 16.975 26.6048 17.5243 26.1479 17.9813C25.6909 18.4382 25.1416 18.6667 24.5 18.6667H8.16663ZM10.5 16.3334H22.1666C22.1666 15.6917 22.3951 15.1424 22.852 14.6854C23.309 14.2285 23.8583 14 24.5 14V9.33335C23.8583 9.33335 23.309 9.10488 22.852 8.64794C22.3951 8.19099 22.1666 7.64169 22.1666 7.00002H10.5C10.5 7.64169 10.2715 8.19099 9.81454 8.64794C9.3576 9.10488 8.80829 9.33335 8.16663 9.33335V14C8.80829 14 9.3576 14.2285 9.81454 14.6854C10.2715 15.1424 10.5 15.6917 10.5 16.3334ZM23.3333 23.3334H3.49996C2.85829 23.3334 2.30899 23.1049 1.85204 22.6479C1.3951 22.191 1.16663 21.6417 1.16663 21V8.16669H3.49996V21H23.3333V23.3334Z" fill="#FC6326"/>
</svg>
