<svg width="30" height="24" viewBox="0 0 30 24" fill="none" xmlns="http://www.w3.org/2000/svg">
<path d="M0.401001 24V20.2667C0.401001 19.5333 0.58989 18.8444 0.967668 18.2C1.34545 17.5556 1.86767 17.0667 2.53433 16.7333C3.66767 16.1556 4.94545 15.6667 6.36767 15.2667C7.78989 14.8667 9.35656 14.6667 11.0677 14.6667C12.7788 14.6667 14.3454 14.8667 15.7677 15.2667C17.1899 15.6667 18.4677 16.1556 19.601 16.7333C20.2677 17.0667 20.7899 17.5556 21.1677 18.2C21.5454 18.8444 21.7343 19.5333 21.7343 20.2667V24H0.401001ZM3.06767 21.3333H19.0677V20.2667C19.0677 20.0222 19.0066 19.8 18.8843 19.6C18.7621 19.4 18.601 19.2444 18.401 19.1333C17.601 18.7333 16.5732 18.3333 15.3177 17.9333C14.0621 17.5333 12.6454 17.3333 11.0677 17.3333C9.48989 17.3333 8.07322 17.5333 6.81767 17.9333C5.56211 18.3333 4.53433 18.7333 3.73433 19.1333C3.53433 19.2444 3.37322 19.4 3.251 19.6C3.12878 19.8 3.06767 20.0222 3.06767 20.2667V21.3333ZM11.0677 13.3333C9.601 13.3333 8.34545 12.8111 7.301 11.7667C6.25656 10.7222 5.73433 9.46667 5.73433 8H5.401C5.201 8 5.03989 7.93889 4.91767 7.81667C4.79545 7.69444 4.73433 7.53333 4.73433 7.33333C4.73433 7.13333 4.79545 6.97222 4.91767 6.85C5.03989 6.72778 5.201 6.66667 5.401 6.66667H5.73433C5.73433 5.66667 5.97878 4.76667 6.46767 3.96667C6.95656 3.16667 7.601 2.53333 8.401 2.06667V3.33333C8.401 3.53333 8.46211 3.69444 8.58433 3.81667C8.70656 3.93889 8.86767 4 9.06767 4C9.26767 4 9.42878 3.93889 9.551 3.81667C9.67322 3.69444 9.73433 3.53333 9.73433 3.33333V1.53333C9.93433 1.46667 10.1454 1.41667 10.3677 1.38333C10.5899 1.35 10.8232 1.33333 11.0677 1.33333C11.3121 1.33333 11.5454 1.35 11.7677 1.38333C11.9899 1.41667 12.201 1.46667 12.401 1.53333V3.33333C12.401 3.53333 12.4621 3.69444 12.5843 3.81667C12.7066 3.93889 12.8677 4 13.0677 4C13.2677 4 13.4288 3.93889 13.551 3.81667C13.6732 3.69444 13.7343 3.53333 13.7343 3.33333V2.06667C14.5343 2.53333 15.1788 3.16667 15.6677 3.96667C16.1566 4.76667 16.401 5.66667 16.401 6.66667H16.7343C16.9343 6.66667 17.0954 6.72778 17.2177 6.85C17.3399 6.97222 17.401 7.13333 17.401 7.33333C17.401 7.53333 17.3399 7.69444 17.2177 7.81667C17.0954 7.93889 16.9343 8 16.7343 8H16.401C16.401 9.46667 15.8788 10.7222 14.8343 11.7667C13.7899 12.8111 12.5343 13.3333 11.0677 13.3333ZM11.0677 10.6667C11.801 10.6667 12.4288 10.4056 12.951 9.88333C13.4732 9.36111 13.7343 8.73333 13.7343 8H8.401C8.401 8.73333 8.66211 9.36111 9.18433 9.88333C9.70656 10.4056 10.3343 10.6667 11.0677 10.6667ZM21.0677 16L20.8677 15C20.7343 14.9556 20.6066 14.9056 20.4843 14.85C20.3621 14.7944 20.2454 14.7111 20.1343 14.6L19.201 14.9333L18.5343 13.7333L19.2677 13.0667V12.2667L18.5343 11.6L19.201 10.4L20.1343 10.7333C20.2232 10.6444 20.3343 10.5667 20.4677 10.5C20.601 10.4333 20.7343 10.3778 20.8677 10.3333L21.0677 9.33333H22.401L22.601 10.3333C22.7343 10.3778 22.8677 10.4333 23.001 10.5C23.1343 10.5667 23.2454 10.6444 23.3343 10.7333L24.2677 10.4L24.9343 11.6L24.201 12.2667V13.0667L24.9343 13.7333L24.2677 14.9333L23.3343 14.6C23.2232 14.7111 23.1066 14.7944 22.9843 14.85C22.8621 14.9056 22.7343 14.9556 22.601 15L22.401 16H21.0677ZM21.7343 13.6667C22.001 13.6667 22.2343 13.5667 22.4343 13.3667C22.6343 13.1667 22.7343 12.9333 22.7343 12.6667C22.7343 12.4 22.6343 12.1667 22.4343 11.9667C22.2343 11.7667 22.001 11.6667 21.7343 11.6667C21.4677 11.6667 21.2343 11.7667 21.0343 11.9667C20.8343 12.1667 20.7343 12.4 20.7343 12.6667C20.7343 12.9333 20.8343 13.1667 21.0343 13.3667C21.2343 13.5667 21.4677 13.6667 21.7343 13.6667ZM24.1343 9.33333L23.8677 7.93333C23.6677 7.86667 23.4843 7.78333 23.3177 7.68333C23.151 7.58333 23.001 7.46667 22.8677 7.33333L21.4677 7.8L20.5343 6.2L21.6677 5.2C21.6232 5.08889 21.601 5 21.601 4.93333V4.4C21.601 4.33333 21.6232 4.24444 21.6677 4.13333L20.5343 3.13333L21.4677 1.53333L22.8677 2C23.001 1.86667 23.151 1.75 23.3177 1.65C23.4843 1.55 23.6677 1.46667 23.8677 1.4L24.1343 0H26.001L26.2677 1.4C26.4677 1.46667 26.651 1.55 26.8177 1.65C26.9843 1.75 27.1343 1.86667 27.2677 2L28.6677 1.53333L29.601 3.13333L28.4677 4.13333C28.5121 4.24444 28.5343 4.33333 28.5343 4.4V4.93333C28.5343 5 28.5121 5.08889 28.4677 5.2L29.601 6.2L28.6677 7.8L27.2677 7.33333C27.1343 7.46667 26.9843 7.58333 26.8177 7.68333C26.651 7.78333 26.4677 7.86667 26.2677 7.93333L26.001 9.33333H24.1343ZM25.0677 6.33333C25.5343 6.33333 25.9288 6.17222 26.251 5.85C26.5732 5.52778 26.7343 5.13333 26.7343 4.66667C26.7343 4.2 26.5732 3.80556 26.251 3.48333C25.9288 3.16111 25.5343 3 25.0677 3C24.601 3 24.2066 3.16111 23.8843 3.48333C23.5621 3.80556 23.401 4.2 23.401 4.66667C23.401 5.13333 23.5621 5.52778 23.8843 5.85C24.2066 6.17222 24.601 6.33333 25.0677 6.33333Z" fill="#FC6326"/>
</svg>
