<svg width="21" height="28" viewBox="0 0 21 28" fill="none" xmlns="http://www.w3.org/2000/svg">
<path d="M4.33337 27.3333V15.1333C3.20004 14.8222 2.25004 14.2 1.48337 13.2666C0.716707 12.3333 0.333374 11.2444 0.333374 9.99996V0.666626H3.00004V9.99996H4.33337V0.666626H7.00004V9.99996H8.33337V0.666626H11V9.99996C11 11.2444 10.6167 12.3333 9.85004 13.2666C9.08337 14.2 8.13337 14.8222 7.00004 15.1333V27.3333H4.33337ZM17.6667 27.3333V16.6666H13.6667V7.33329C13.6667 5.48885 14.3167 3.91663 15.6167 2.61663C16.9167 1.31663 18.4889 0.666626 20.3334 0.666626V27.3333H17.6667Z" fill="#FC6326"/>
</svg>
