<svg width="28" height="28" viewBox="0 0 28 28" fill="none" xmlns="http://www.w3.org/2000/svg">
<path d="M16.7418 9.975C16.5084 9.39166 16.1633 8.93472 15.7063 8.60416C15.2494 8.27361 14.7001 8.10833 14.0584 8.10833C13.7084 8.10833 13.3681 8.15694 13.0376 8.25416C12.707 8.35139 12.4056 8.53611 12.1334 8.80833L10.4418 7.11666C10.714 6.84444 11.0834 6.59652 11.5501 6.37291C12.0168 6.1493 12.4445 6.00833 12.8334 5.95V3.5H15.1668V5.89166C16.0418 6.06666 16.8098 6.42152 17.4709 6.95625C18.132 7.49097 18.6279 8.18611 18.9584 9.04166L16.7418 9.975ZM23.1001 26.3667L17.7334 21C17.4418 21.2917 17.0431 21.5299 16.5376 21.7146C16.032 21.8993 15.5751 22.0111 15.1668 22.05V24.5H12.8334V21.9917C11.7445 21.7194 10.8355 21.2236 10.1063 20.5042C9.37717 19.7847 8.84731 18.8806 8.51676 17.7917L10.8501 16.8583C11.0834 17.675 11.4772 18.375 12.0313 18.9583C12.5855 19.5417 13.3195 19.8333 14.2334 19.8333C14.5834 19.8333 14.9043 19.7896 15.1959 19.7021C15.4876 19.6146 15.7695 19.4833 16.0418 19.3083L1.63342 4.9L3.26676 3.26666L24.7334 24.7333L23.1001 26.3667Z" fill="#FC6326"/>
</svg>
