<svg width="24" height="24" viewBox="0 0 24 24" fill="none" xmlns="http://www.w3.org/2000/svg">
<path fill-rule="evenodd" clip-rule="evenodd" d="M5 2.73133C5 1.18267 12 0 12 0C12 0 19 1.18267 19 2.73133C19 4.796 17.7267 5.66667 17.7267 5.66667H6.27333C6.27333 5.66667 5 4.796 5 2.73133ZM13 3C13 3.26522 12.8946 3.51957 12.7071 3.70711C12.5196 3.89464 12.2652 4 12 4C11.7348 4 11.4804 3.89464 11.2929 3.70711C11.1054 3.51957 11 3.26522 11 3C11 2.73478 11.1054 2.48043 11.2929 2.29289C11.4804 2.10536 11.7348 2 12 2C12.2652 2 12.5196 2.10536 12.7071 2.29289C12.8946 2.48043 13 2.73478 13 3ZM17.2093 8.18667C18.136 7.46333 17.992 6.66667 17.992 6.66667H6.008C6.008 6.66667 5.86333 7.46333 6.79067 8.18667C6.61996 8.96552 6.62606 9.77274 6.80851 10.5489C6.99097 11.3251 7.34513 12.0505 7.84496 12.6718C8.34478 13.293 8.97754 13.7943 9.69666 14.1387C10.4158 14.4831 11.203 14.6618 12.0003 14.6618C12.7977 14.6618 13.5849 14.4831 14.304 14.1387C15.0231 13.7943 15.6559 13.293 16.1557 12.6718C16.6555 12.0505 17.0097 11.3251 17.1922 10.5489C17.3746 9.77274 17.3807 8.96552 17.21 8.18667M12 9.33333C13.814 9.33333 15.0827 9.124 15.968 8.82267C15.9889 8.98978 15.9996 9.16 16 9.33333C15.9992 9.87969 15.8865 10.4201 15.6688 10.9212C15.4512 11.4223 15.1332 11.8735 14.7344 12.247C14.3356 12.6205 13.8646 12.9083 13.3503 13.0928C12.836 13.2772 12.2894 13.3543 11.7442 13.3194C11.1989 13.2845 10.6666 13.1382 10.1801 12.8896C9.69358 12.641 9.26313 12.2954 8.91531 11.8741C8.56749 11.4528 8.30967 10.9646 8.15775 10.4398C8.00583 9.91502 7.96303 9.36465 8.032 8.82267C8.918 9.124 10.1853 9.33333 12 9.33333ZM13 16C13.1768 16 13.3464 16.0702 13.4714 16.1953C13.5964 16.3203 13.6667 16.4899 13.6667 16.6667V17.588C13.6666 17.7118 13.6321 17.8331 13.567 17.9384C13.5019 18.0436 13.4087 18.1287 13.298 18.184L13 18.3333L13.3847 20.2567L16.2113 16.0167C16.4051 16.0167 16.5838 16.0176 16.7473 16.0193C20.3507 16.8413 24 18.5173 24 21.0387V24H0V21.0387C0 18.5173 3.80933 16.822 7.412 16C7.39933 16.0027 7.53467 16.0047 7.782 16.0067L10.638 20.29L11 18.3333L10.702 18.184C10.5913 18.1287 10.4981 18.0436 10.433 17.9384C10.3679 17.8331 10.3334 17.7118 10.3333 17.588V16.6667C10.3333 16.4899 10.4036 16.3203 10.5286 16.1953C10.6536 16.0702 10.8232 16 11 16H13ZM19.3333 19.5553C19.3333 19.5553 18.4447 19.1113 18 18.6667C17.5553 19.1113 16.6667 19.5553 16.6667 19.5553C16.6667 19.5553 17.132 21.3333 18 21.3333C18.868 21.3333 19.3333 19.5553 19.3333 19.5553Z" fill="#FC6326"/>
</svg>
