<svg width="28" height="28" viewBox="0 0 28 28" fill="none" xmlns="http://www.w3.org/2000/svg">
<path d="M3.5 25.9583V2.625L5.25 4.375L7 2.625L8.75 4.375L10.5 2.625L12.25 4.375L14 2.625L15.75 4.375L17.5 2.625L19.25 4.375L21 2.625L22.75 4.375L24.5 2.625V25.9583L22.75 24.2083L21 25.9583L19.25 24.2083L17.5 25.9583L15.75 24.2083L14 25.9583L12.25 24.2083L10.5 25.9583L8.75 24.2083L7 25.9583L5.25 24.2083L3.5 25.9583ZM7 20.125H21V17.7917H7V20.125ZM7 15.4583H21V13.125H7V15.4583ZM7 10.7917H21V8.45833H7V10.7917ZM5.83333 22.575H22.1667V6.00833H5.83333V22.575Z" fill="#FC6326"/>
</svg>
