<svg width="25" height="24" viewBox="0 0 25 24" fill="none" xmlns="http://www.w3.org/2000/svg">
<path d="M3.16683 23.6667C2.52516 23.6667 1.97586 23.4382 1.51891 22.9812C1.06197 22.5243 0.833496 21.975 0.833496 21.3333V8.49999C0.833496 7.85833 1.06197 7.30902 1.51891 6.85208C1.97586 6.39513 2.52516 6.16666 3.16683 6.16666H9.00016V2.66666C9.00016 2.02499 9.22863 1.47569 9.68558 1.01874C10.1425 0.5618 10.6918 0.333328 11.3335 0.333328H13.6668C14.3085 0.333328 14.8578 0.5618 15.3147 1.01874C15.7717 1.47569 16.0002 2.02499 16.0002 2.66666V6.16666H21.8335C22.4752 6.16666 23.0245 6.39513 23.4814 6.85208C23.9384 7.30902 24.1668 7.85833 24.1668 8.49999V21.3333C24.1668 21.975 23.9384 22.5243 23.4814 22.9812C23.0245 23.4382 22.4752 23.6667 21.8335 23.6667H3.16683ZM3.16683 21.3333H21.8335V8.49999H16.0002C16.0002 9.14166 15.7717 9.69097 15.3147 10.1479C14.8578 10.6049 14.3085 10.8333 13.6668 10.8333H11.3335C10.6918 10.8333 10.1425 10.6049 9.68558 10.1479C9.22863 9.69097 9.00016 9.14166 9.00016 8.49999H3.16683V21.3333ZM5.50016 19H12.5002V18.475C12.5002 18.1444 12.4078 17.8382 12.2231 17.5562C12.0384 17.2743 11.7807 17.0555 11.4502 16.9C11.0613 16.725 10.6675 16.5937 10.2689 16.5062C9.8703 16.4187 9.44738 16.375 9.00016 16.375C8.55294 16.375 8.13002 16.4187 7.73141 16.5062C7.3328 16.5937 6.93905 16.725 6.55016 16.9C6.21961 17.0555 5.96197 17.2743 5.77725 17.5562C5.59252 17.8382 5.50016 18.1444 5.50016 18.475V19ZM14.8335 17.25H19.5002V15.5H14.8335V17.25ZM9.00016 15.5C9.48627 15.5 9.89947 15.3299 10.2397 14.9896C10.58 14.6493 10.7502 14.2361 10.7502 13.75C10.7502 13.2639 10.58 12.8507 10.2397 12.5104C9.89947 12.1701 9.48627 12 9.00016 12C8.51405 12 8.10086 12.1701 7.76058 12.5104C7.4203 12.8507 7.25016 13.2639 7.25016 13.75C7.25016 14.2361 7.4203 14.6493 7.76058 14.9896C8.10086 15.3299 8.51405 15.5 9.00016 15.5ZM14.8335 13.75H19.5002V12H14.8335V13.75ZM11.3335 8.49999H13.6668V2.66666H11.3335V8.49999Z" fill="#FC6326"/>
</svg>
