<svg width="312" height="67" viewBox="0 0 312 67" fill="none" xmlns="http://www.w3.org/2000/svg">
<path d="M15.568 66.864C13.904 66.864 12.304 66.576 10.768 66C9.296 65.488 7.92 64.816 6.64 63.984C5.424 63.152 4.336 62.256 3.376 61.296C2.416 60.336 1.616 59.408 0.976 58.512L6.448 50.736C7.152 51.824 8.016 52.944 9.04 54.096C10.064 55.184 11.152 56.08 12.304 56.784C13.456 57.488 14.576 57.84 15.664 57.84C17.328 57.84 18.736 57.584 19.888 57.072C21.104 56.56 22.064 55.824 22.768 54.864C23.472 53.904 23.984 52.72 24.304 51.312C24.624 49.904 24.784 48.336 24.784 46.608V0.719999H34V46.992C34 51.664 33.168 55.472 31.504 58.416C29.904 61.296 27.696 63.44 24.88 64.848C22.128 66.192 19.024 66.864 15.568 66.864ZM56.4295 66.864C52.9095 66.864 49.9975 66.096 47.6935 64.56C45.4535 63.024 43.7895 60.944 42.7015 58.32C41.6135 55.696 41.0695 52.72 41.0695 49.392V23.76H50.2855V49.392C50.2855 50.992 50.5095 52.496 50.9575 53.904C51.4695 55.312 52.2695 56.464 53.3575 57.36C54.4455 58.192 55.9495 58.608 57.8695 58.608C60.8775 58.608 63.2775 57.904 65.0695 56.496C66.8615 55.024 68.1415 53.072 68.9095 50.64C69.7415 48.208 70.1575 45.52 70.1575 42.576V23.76H79.3735V66H70.1575V59.472C68.6215 61.84 66.7015 63.664 64.3975 64.944C62.0935 66.224 59.4375 66.864 56.4295 66.864ZM87.5755 66V23.76H96.7915V66H87.5755ZM92.1835 16.848C90.5835 16.848 89.2395 16.304 88.1515 15.216C87.0635 14.064 86.5195 12.72 86.5195 11.184C86.5195 9.584 87.0635 8.24 88.1515 7.152C89.2395 6.064 90.5835 5.51999 92.1835 5.51999C93.7195 5.51999 95.0315 6.064 96.1195 7.152C97.2715 8.24 97.8475 9.584 97.8475 11.184C97.8475 12.72 97.2715 14.064 96.1195 15.216C95.0315 16.304 93.7195 16.848 92.1835 16.848ZM123.792 66.96C120.848 66.96 118.064 66.416 115.44 65.328C112.816 64.176 110.48 62.64 108.432 60.72C106.448 58.736 104.848 56.4 103.632 53.712C102.48 51.024 101.904 48.08 101.904 44.88C101.904 40.848 102.864 37.168 104.784 33.84C106.768 30.512 109.424 27.856 112.752 25.872C116.144 23.824 119.952 22.8 124.176 22.8C127.824 22.8 131.12 23.504 134.064 24.912C137.072 26.32 139.6 28.272 141.648 30.768C143.696 33.264 145.04 36.176 145.68 39.504H136.08C135.312 37.008 133.84 35.024 131.664 33.552C129.552 32.016 127.248 31.248 124.752 31.248C122.192 31.248 119.92 31.856 117.936 33.072C116.016 34.288 114.48 35.952 113.328 38.064C112.24 40.112 111.696 42.384 111.696 44.88C111.696 47.248 112.208 49.488 113.232 51.6C114.256 53.712 115.696 55.408 117.552 56.688C119.472 57.968 121.744 58.608 124.368 58.608C126.864 58.608 129.136 58 131.184 56.784C133.232 55.504 134.704 53.744 135.6 51.504H145.392C144.496 54.64 142.992 57.392 140.88 59.76C138.832 62.064 136.336 63.856 133.392 65.136C130.512 66.352 127.312 66.96 123.792 66.96ZM170.598 66.768C166.118 66.768 162.086 65.872 158.502 64.08C154.982 62.224 152.166 59.664 150.054 56.4C147.942 53.072 146.886 49.2 146.886 44.784C146.886 40.56 147.91 36.784 149.958 33.456C152.006 30.128 154.758 27.504 158.214 25.584C161.67 23.6 165.542 22.608 169.83 22.608C173.926 22.608 177.67 23.6 181.062 25.584C184.454 27.504 187.174 30.096 189.222 33.36C191.334 36.624 192.39 40.336 192.39 44.496V47.184H153.894V40.272H183.078C182.566 37.456 181.094 35.088 178.662 33.168C176.23 31.184 173.318 30.192 169.926 30.192C167.174 30.192 164.774 30.832 162.726 32.112C160.742 33.328 159.206 35.024 158.118 37.2C157.03 39.312 156.486 41.744 156.486 44.496C156.486 47.44 157.094 50 158.31 52.176C159.59 54.352 161.222 56.048 163.206 57.264C165.254 58.416 167.43 58.992 169.734 58.992C171.718 58.992 173.542 58.768 175.206 58.32C176.934 57.808 178.47 57.136 179.814 56.304C181.222 55.472 182.406 54.448 183.366 53.232L189.51 58.416C188.166 60.08 186.47 61.552 184.422 62.832C182.374 64.048 180.166 65.008 177.798 65.712C175.43 66.416 173.03 66.768 170.598 66.768Z" fill="#00072F"/>
<path d="M197.745 65.904V23.568H206.961V29.808C208.305 27.76 210.001 26.064 212.049 24.72C214.097 23.312 216.497 22.608 219.249 22.608C222.257 22.608 224.881 23.248 227.121 24.528C229.425 25.808 231.217 27.76 232.497 30.384C234.033 28.016 235.921 26.128 238.161 24.72C240.401 23.312 243.057 22.608 246.129 22.608C249.521 22.608 252.369 23.376 254.673 24.912C256.977 26.384 258.705 28.464 259.857 31.152C261.009 33.776 261.585 36.88 261.585 40.464V65.904H252.273V40.464C252.273 38.672 252.017 37.072 251.505 35.664C251.057 34.256 250.257 33.136 249.105 32.304C247.953 31.408 246.449 30.96 244.593 30.96C242.801 30.96 241.169 31.44 239.697 32.4C238.225 33.36 237.041 34.608 236.145 36.144C235.249 37.68 234.801 39.344 234.801 41.136V65.904H225.489V40.464C225.489 38.672 225.233 37.072 224.721 35.664C224.273 34.256 223.473 33.136 222.321 32.304C221.169 31.408 219.665 30.96 217.809 30.96C215.697 30.96 213.841 31.632 212.241 32.976C210.705 34.32 209.489 36.016 208.593 38.064C207.697 40.112 207.153 42.224 206.961 44.4V65.904H197.745ZM289.341 66.768C284.861 66.768 280.829 65.872 277.245 64.08C273.725 62.224 270.909 59.664 268.797 56.4C266.685 53.072 265.629 49.2 265.629 44.784C265.629 40.56 266.653 36.784 268.701 33.456C270.749 30.128 273.501 27.504 276.957 25.584C280.413 23.6 284.285 22.608 288.573 22.608C292.669 22.608 296.413 23.6 299.805 25.584C303.197 27.504 305.917 30.096 307.965 33.36C310.077 36.624 311.133 40.336 311.133 44.496V47.184H272.637V40.272H301.821C301.309 37.456 299.837 35.088 297.405 33.168C294.973 31.184 292.061 30.192 288.669 30.192C285.917 30.192 283.517 30.832 281.469 32.112C279.485 33.328 277.949 35.024 276.861 37.2C275.773 39.312 275.229 41.744 275.229 44.496C275.229 47.44 275.837 50 277.053 52.176C278.333 54.352 279.965 56.048 281.949 57.264C283.997 58.416 286.173 58.992 288.477 58.992C290.461 58.992 292.285 58.768 293.949 58.32C295.677 57.808 297.213 57.136 298.557 56.304C299.965 55.472 301.149 54.448 302.109 53.232L308.253 58.416C306.909 60.08 305.213 61.552 303.165 62.832C301.117 64.048 298.909 65.008 296.541 65.712C294.173 66.416 291.773 66.768 289.341 66.768Z" fill="#FC6326"/>
</svg>
