<svg width="19" height="24" viewBox="0 0 19 24" fill="none" xmlns="http://www.w3.org/2000/svg">
<path d="M7.74984 15.5H11.2498L10.579 11.7375C10.9679 11.5431 11.2741 11.2611 11.4978 10.8917C11.7214 10.5222 11.8332 10.1139 11.8332 9.66667C11.8332 9.025 11.6047 8.47569 11.1478 8.01875C10.6908 7.5618 10.1415 7.33333 9.49984 7.33333C8.85817 7.33333 8.30887 7.5618 7.85192 8.01875C7.39498 8.47569 7.1665 9.025 7.1665 9.66667C7.1665 10.1139 7.27831 10.5222 7.50192 10.8917C7.72553 11.2611 8.03178 11.5431 8.42067 11.7375L7.74984 15.5ZM9.49984 23.6667C6.79706 22.9861 4.56581 21.4354 2.80609 19.0146C1.04637 16.5937 0.166504 13.9056 0.166504 10.95V3.83333L9.49984 0.333333L18.8332 3.83333V10.95C18.8332 13.9056 17.9533 16.5937 16.1936 19.0146C14.4339 21.4354 12.2026 22.9861 9.49984 23.6667ZM9.49984 21.2167C11.5221 20.575 13.1943 19.2917 14.5165 17.3667C15.8387 15.4417 16.4998 13.3028 16.4998 10.95V5.4375L9.49984 2.8125L2.49984 5.4375V10.95C2.49984 13.3028 3.16095 15.4417 4.48317 17.3667C5.80539 19.2917 7.47762 20.575 9.49984 21.2167Z" fill="#FC6326"/>
</svg>
